<?xml version="1.0" encoding="utf-8"?>
<!-- Generator: Adobe Illustrator 16.0.0, SVG Export Plug-In . SVG Version: 6.00 Build 0)  -->
<!DOCTYPE svg PUBLIC "-//W3C//DTD SVG 1.1//EN" "http://www.w3.org/Graphics/SVG/1.1/DTD/svg11.dtd">
<svg version="1.1" id="Layer_1" xmlns="http://www.w3.org/2000/svg" xmlns:xlink="http://www.w3.org/1999/xlink" x="0px" y="0px"
	 width="841.89px" height="1190.55px" viewBox="0 0 841.89 1190.55" enable-background="new 0 0 841.89 1190.55"
	 xml:space="preserve">
<g>
	<defs>
		<rect id="SVGID_1_" x="-46.575" y="-168.45" width="940.785" height="1551"/>
	</defs>
	<clipPath id="SVGID_2_">
		<use xlink:href="#SVGID_1_"  overflow="visible"/>
	</clipPath>
	<path clip-path="url(#SVGID_2_)" d="M420.92,1180.271c0.281-0.063,0.564-0.122,0.854-0.136c0.016-0.001,0.035,0.001,0.051,0.001
		c-0.354-137.523-0.803-319.83-1.682-457.329c-17.647-0.002-26.47,0-44.117,0.011c3.223,135.782,8.842,311.4,16.328,447.049
		C392.33,1174.447,398.276,1181.056,420.92,1180.271"/>
	<path clip-path="url(#SVGID_2_)" d="M442.65,722.815c-9.002-0.005-13.506-0.006-22.51-0.008
		c0.883,137.499,1.331,319.806,1.686,457.328c0.281-0.009,0.559,0.012,0.829,0.058c14.125-0.851,14.45-7.405,14.431-10.313
		C440.299,1034.166,442.503,858.563,442.65,722.815"/>
	<path clip-path="url(#SVGID_2_)" fill="none" stroke="#FFFFFF" stroke-width="2.835" stroke-miterlimit="10" d="M445.787,722.808
		c0.722,118.657,1.09,275.988,1.38,394.645c-19.188,0.86-24.186-4.945-24.166-8.948c-6.137-117.03-10.745-268.542-13.387-385.688
		C424.084,722.808,431.318,722.808,445.787,722.808z"/>
	<path clip-path="url(#SVGID_2_)" d="M445.787,722.808c0.722,118.657,1.09,275.988,1.38,394.645
		c-19.188,0.86-24.186-4.945-24.166-8.948c-6.137-117.03-10.745-268.542-13.387-385.688
		C424.084,722.808,431.318,722.808,445.787,722.808"/>
	<path clip-path="url(#SVGID_2_)" d="M464.244,722.813c-0.122,117.115-1.933,268.614-4.563,385.702
		c0.017,2.556-0.253,8.39-12.514,8.937c-0.29-118.656-0.656-275.988-1.38-394.645C453.171,722.808,456.86,722.81,464.244,722.813"/>
	<path clip-path="url(#SVGID_2_)" d="M420.141,490.921c0.883-137.533,1.331-319.896,1.685-457.432
		c-23.403-0.998-29.495,5.733-29.472,10.375c-7.486,135.647-13.106,311.265-16.329,447.045
		C393.673,490.921,402.496,490.923,420.141,490.921"/>
	<path clip-path="url(#SVGID_2_)" d="M442.65,490.913c-0.147-135.746-2.352-311.349-5.564-447.063
		c0.02-2.965-0.309-9.724-15.26-10.361c-0.354,137.536-0.803,319.897-1.686,457.432C429.145,490.92,433.648,490.918,442.65,490.913"
		/>
	<path clip-path="url(#SVGID_2_)" fill="none" stroke="#FFFFFF" stroke-width="1.417" stroke-miterlimit="10" d="M420.371,720.01
		c0.157,153.16,0.157,305.584,1.264,459.615"/>
	<path clip-path="url(#SVGID_2_)" fill="none" stroke="#FFFFFF" stroke-width="1.417" stroke-miterlimit="10" d="M421.66,33.489
		c-1.133,153.125-1.133,306.852-1.479,460.396"/>
	<path clip-path="url(#SVGID_2_)" fill="none" stroke="#FFFFFF" stroke-width="2.835" stroke-miterlimit="10" d="M445.787,490.921
		c0.722-118.657,1.09-275.987,1.38-394.646c-19.188-0.86-24.186,4.946-24.166,8.951c-6.137,117.029-10.745,268.541-13.387,385.686
		C424.084,490.921,431.318,490.923,445.787,490.921z"/>
	<path clip-path="url(#SVGID_2_)" d="M445.787,490.921c0.722-118.657,1.09-275.987,1.38-394.646
		c-19.188-0.86-24.186,4.946-24.166,8.951c-6.137,117.029-10.745,268.541-13.387,385.686
		C424.084,490.921,431.318,490.923,445.787,490.921"/>
	<path clip-path="url(#SVGID_2_)" d="M464.244,490.915c-0.122-117.114-1.933-268.614-4.563-385.7
		c0.017-2.558-0.253-8.391-12.514-8.938c-0.29,118.656-0.656,275.988-1.38,394.645C453.171,490.92,456.86,490.919,464.244,490.915"
		/>
	<path clip-path="url(#SVGID_2_)" fill="none" stroke="#FFFFFF" stroke-width="1.417" stroke-miterlimit="10" d="M444.807,719.743
		c-0.813,132.582,1.422,265.464,1.523,398.962"/>
	<path clip-path="url(#SVGID_2_)" fill="none" stroke="#FFFFFF" stroke-width="1.417" stroke-miterlimit="10" d="M446.565,96.083
		c-0.338,133.525-2.575,265.104-1.55,398.127"/>
	<path clip-path="url(#SVGID_2_)" d="M305.191,722.882c1.127,44.011,2.094,88.021,2.901,132.032
		c-17.227,0.413-21.719-0.168-21.718-1.763c-5.399-43.353-10.3-86.705-14.488-130.107
		C285.208,722.976,291.868,722.945,305.191,722.882"/>
	<path clip-path="url(#SVGID_2_)" d="M322.186,722.808c-0.402,43.41-1.398,86.807-2.884,130.215
		c0.026,1.02-0.208,1.632-11.213,1.892c-0.803-44.012-1.771-88.022-2.897-132.032C311.99,722.852,315.388,722.839,322.186,722.808"
		/>
	<path clip-path="url(#SVGID_2_)" d="M359.089,984.646c-0.651-87.281-1.462-174.559-2.434-261.835
		c-13.314-0.005-19.972-0.003-33.286,0.003c4.033,86.105,8.778,172.118,14.023,258.128c-0.007,3.15,4.446,4.349,21.474,3.716
		C358.942,984.651,359.013,984.646,359.089,984.646"/>
	<path clip-path="url(#SVGID_2_)" d="M356.656,722.811c0.971,87.277,1.783,174.554,2.434,261.835c0.032,0,0.064-0.006,0.098-0.006
		c0.021,0,0.04,0.004,0.061,0.004c10.832-0.424,11.073-1.633,11.049-3.646c1.639-86.058,2.788-172.098,3.34-258.177
		C366.844,722.815,363.448,722.813,356.656,722.811"/>
	<path clip-path="url(#SVGID_2_)" d="M483.201,722.811c-0.971,87.25-1.782,174.499-2.432,261.755c0.339,0.01,0.662,0.05,0.97,0.118
		c16.405,0.57,20.73-0.64,20.725-3.743c5.245-86.009,9.99-172.021,14.022-258.127C503.174,722.808,496.514,722.806,483.201,722.811"
		/>
	<path clip-path="url(#SVGID_2_)" d="M480.557,984.553c0.072,0,0.14,0.007,0.213,0.012c0.649-87.255,1.461-174.504,2.432-261.754
		c-6.792,0.003-10.189,0.005-16.982,0.01c0.553,86.079,1.701,172.119,3.34,258.177c-0.022,1.963,0.229,3.157,10.249,3.608
		C480.047,984.574,480.295,984.553,480.557,984.553"/>
	<path clip-path="url(#SVGID_2_)" d="M534.665,722.882c-1.126,44.011-2.094,88.021-2.9,132.032
		c17.228,0.413,21.721-0.168,21.717-1.763c5.4-43.353,10.304-86.705,14.491-130.107
		C554.648,722.976,547.987,722.945,534.665,722.882"/>
	<path clip-path="url(#SVGID_2_)" d="M517.671,722.808c0.402,43.41,1.398,86.807,2.885,130.215
		c-0.026,1.02,0.207,1.632,11.211,1.892c0.805-44.012,1.772-88.022,2.898-132.032C527.867,722.852,524.47,722.839,517.671,722.808"
		/>
	<path clip-path="url(#SVGID_2_)" d="M356.656,490.918c0.971-87.278,1.783-174.556,2.434-261.837
		c-17.216-0.653-21.704,0.542-21.696,3.707c-5.245,86.011-9.99,172.025-14.023,258.128
		C336.684,490.923,343.341,490.923,356.656,490.918"/>
	<path clip-path="url(#SVGID_2_)" d="M373.638,490.908c-0.552-86.078-1.701-172.119-3.34-258.176
		c0.024-2.022-0.212-3.234-11.208-3.651c-0.651,87.281-1.462,174.559-2.434,261.837
		C363.448,490.916,366.844,490.915,373.638,490.908"/>
	<path clip-path="url(#SVGID_2_)" d="M305.191,490.845c1.127-44.009,2.094-88.02,2.901-132.032
		c-17.227-0.411-21.719,0.171-21.718,1.768c-5.399,43.349-10.3,86.702-14.488,130.104
		C285.208,490.753,291.868,490.784,305.191,490.845"/>
	<path clip-path="url(#SVGID_2_)" d="M319.302,360.708c0.025-0.962-0.19-1.56-9.411-1.845c-0.182,0.019-0.367,0.034-0.559,0.034
		c-0.293,0-0.571-0.031-0.839-0.071c-0.141-0.005-0.259-0.009-0.404-0.013c-0.803,44.014-1.771,88.023-2.897,132.033
		c6.798,0.031,10.196,0.045,16.994,0.075C321.784,447.51,320.788,404.115,319.302,360.708"/>
	<path clip-path="url(#SVGID_2_)" d="M483.201,490.918c-0.971-87.278-1.782-174.556-2.432-261.837
		c17.214-0.653,21.7,0.542,21.694,3.707c5.245,86.011,9.99,172.025,14.022,258.128C503.174,490.923,496.514,490.923,483.201,490.918
		"/>
	<path clip-path="url(#SVGID_2_)" d="M466.219,490.908c0.553-86.078,1.7-172.119,3.339-258.176
		c-0.021-2.022,0.214-3.234,11.212-3.651c0.649,87.281,1.461,174.559,2.431,261.837
		C476.409,490.916,473.012,490.915,466.219,490.908"/>
	<path clip-path="url(#SVGID_2_)" d="M534.665,490.845c-1.126-44.009-2.094-88.02-2.9-132.032
		c17.228-0.411,21.721,0.171,21.717,1.768c5.4,43.349,10.304,86.702,14.491,130.104
		C554.648,490.753,547.987,490.784,534.665,490.845"/>
	<path clip-path="url(#SVGID_2_)" d="M517.671,490.921c0.402-43.412,1.398-86.807,2.885-130.213
		c-0.026-1.02,0.207-1.632,11.211-1.895c0.805,44.014,1.772,88.023,2.898,132.033C527.867,490.877,524.47,490.892,517.671,490.921"
		/>
	<path clip-path="url(#SVGID_2_)" fill="none" stroke="#FFFFFF" stroke-width="1.417" stroke-miterlimit="10" d="M357.65,719.501
		c-0.819,88.533,1.417,175.816,1.432,264.833"/>
	<path clip-path="url(#SVGID_2_)" fill="none" stroke="#FFFFFF" stroke-width="1.417" stroke-miterlimit="10" d="M359.082,229.081
		c-1.134,87.812-1.134,176.398-1.403,264.304"/>
	<path clip-path="url(#SVGID_2_)" fill="none" stroke="#FFFFFF" stroke-width="1.417" stroke-miterlimit="10" d="M482.465,720.291
		c-0.479,87.743-0.479,176.329-1.384,263.505"/>
	<path clip-path="url(#SVGID_2_)" fill="none" stroke="#FFFFFF" stroke-width="1.417" stroke-miterlimit="10" d="M481.063,229.081
		c2.042,89.113,0.922,176.398,1.219,265.076"/>
	<path clip-path="url(#SVGID_2_)" fill="none" stroke="#FFFFFF" stroke-width="1.417" stroke-miterlimit="10" d="M306.356,719.595
		c0.146,34.915,2.187,69.765,2.813,104.664c0.179,10.063,0.242,20.133,0.118,30.197"/>
	<path clip-path="url(#SVGID_2_)" fill="none" stroke="#FFFFFF" stroke-width="1.417" stroke-miterlimit="10" d="M309.245,359.536
		c-0.464,44.64-1.582,88.934-3.32,133.838"/>
	<path clip-path="url(#SVGID_2_)" fill="none" stroke="#FFFFFF" stroke-width="1.417" stroke-miterlimit="10" d="M535.567,720.711
		c1.177,44.329-4.412,89.928-3.458,133.768"/>
	<path clip-path="url(#SVGID_2_)" fill="none" stroke="#FFFFFF" stroke-width="1.417" stroke-miterlimit="10" d="M532.188,359.541
		c1.202,44.636,1.202,90.234,1.015,134.016"/>
	<path clip-path="url(#SVGID_2_)" d="M74.954,487.367v6.993l281.213-0.049c0.665-0.183,1.365-0.17,2.056,0l413.607-0.072v-6.993
		L74.954,487.367z"/>
	<path clip-path="url(#SVGID_2_)" d="M482.608,719.44c-0.062,0.003-0.12,0.012-0.185,0.012c-0.063,0-0.122-0.01-0.183-0.012
		l-37.038-0.008c-0.098,0.005-0.195,0.02-0.297,0.02c-0.105,0-0.201-0.015-0.303-0.02l-23.869-0.003
		c-0.124,0.007-0.244,0.022-0.373,0.022s-0.252-0.016-0.376-0.022L307,719.411c-0.219,0.023-0.442,0.041-0.675,0.041
		c-0.234,0-0.46-0.018-0.679-0.041l-230.693-0.043v6.992l696.876,0.124v-6.994L482.608,719.44z"/>
	<polygon clip-path="url(#SVGID_2_)" points="204.257,662.289 207.83,662.289 232.663,694.605 232.947,694.605 232.947,662.289 
		235.75,662.289 235.75,707.496 234.262,707.496 207.374,671.584 207.145,671.584 207.145,706.466 204.257,706.466 	"/>
	<path clip-path="url(#SVGID_2_)" d="M262.61,662.289h6.374v28.686c0,1.889,0.279,3.66,0.83,5.313
		c0.554,1.654,1.344,3.103,2.372,4.346c1.028,1.246,2.274,2.23,3.729,2.95c1.458,0.721,3.084,1.082,4.873,1.082
		c1.811,0,3.439-0.361,4.888-1.082c1.449-0.72,2.68-1.704,3.699-2.95c1.019-1.243,1.801-2.691,2.345-4.346
		c0.543-1.653,0.812-3.425,0.812-5.313v-28.686h2.804v28.686c0,2.265-0.316,4.397-0.943,6.395c-0.63,2.001-1.618,3.749-2.958,5.249
		c-1.344,1.498-3.064,2.686-5.161,3.564c-2.094,0.877-4.61,1.313-7.541,1.313c-2.613,0-4.922-0.437-6.934-1.313
		c-2.008-0.879-3.696-2.069-5.058-3.582c-1.361-1.511-2.39-3.281-3.084-5.313c-0.696-2.032-1.046-4.203-1.046-6.517V662.289z"/>
	<polygon clip-path="url(#SVGID_2_)" points="351.945,662.289 351.945,665.154 338.228,665.154 338.228,706.466 331.854,706.466 
		331.854,665.154 318.139,665.154 318.139,662.289 	"/>
	<path clip-path="url(#SVGID_2_)" d="M375.322,662.289h13.145c2.268,0,4.258,0.284,5.972,0.851c1.716,0.563,3.146,1.359,4.289,2.381
		c1.142,1.024,2.001,2.239,2.586,3.648c0.58,1.41,0.869,2.947,0.869,4.614c0,1.373-0.222,2.666-0.67,3.864
		c-0.448,1.198-1.075,2.28-1.886,3.248c-0.808,0.966-1.786,1.798-2.929,2.499c-1.14,0.7-2.4,1.248-3.771,1.647l13.803,21.424h-7.401
		l-13.173-20.757h-4.46v20.757h-6.372V662.289z M381.694,683.476h3.688c1.429,0,2.747-0.222,3.958-0.666
		c1.211-0.443,2.257-1.068,3.143-1.879c0.885-0.811,1.577-1.795,2.072-2.953c0.494-1.153,0.744-2.45,0.744-3.896
		c0-1.331-0.196-2.555-0.586-3.662c-0.39-1.114-0.943-2.063-1.657-2.852c-0.716-0.789-1.561-1.403-2.543-1.848
		c-0.984-0.444-2.054-0.666-3.216-0.666h-5.602V683.476z"/>
	<rect x="429.047" y="662.289" clip-path="url(#SVGID_2_)" width="6.372" height="44.177"/>
	<polygon clip-path="url(#SVGID_2_)" points="491.488,662.289 491.488,665.154 477.772,665.154 477.772,706.466 471.399,706.466 
		471.399,665.154 457.682,665.154 457.682,662.289 	"/>
	<rect x="513.695" y="662.289" clip-path="url(#SVGID_2_)" width="6.372" height="44.177"/>
	<path clip-path="url(#SVGID_2_)" d="M566.734,707.499c-2.934,0-5.673-0.612-8.215-1.832c-2.544-1.224-4.75-2.893-6.631-5.018
		c-1.878-2.12-3.354-4.594-4.428-7.427c-1.079-2.833-1.616-5.856-1.616-9.078c0-2.107,0.241-4.145,0.729-6.098
		c0.485-1.953,1.177-3.776,2.07-5.463c0.896-1.688,1.977-3.227,3.244-4.616c1.269-1.387,2.671-2.575,4.217-3.564
		c1.541-0.987,3.209-1.753,5-2.3c1.791-0.541,3.667-0.813,5.629-0.813c1.963,0,3.841,0.272,5.63,0.813
		c1.791,0.547,3.461,1.313,5.019,2.3c1.551,0.989,2.955,2.178,4.215,3.564c1.253,1.39,2.336,2.929,3.24,4.616
		c0.906,1.687,1.603,3.51,2.09,5.463c0.481,1.953,0.728,3.99,0.728,6.098c0,2.132-0.246,4.189-0.728,6.18
		c-0.487,1.99-1.184,3.85-2.09,5.581c-0.904,1.731-1.987,3.308-3.24,4.729c-1.26,1.425-2.664,2.646-4.215,3.668
		c-1.558,1.019-3.228,1.809-5.019,2.365C570.575,707.22,568.697,707.499,566.734,707.499 M566.734,705.298
		c2.176,0,4.091-0.527,5.759-1.581c1.667-1.055,3.072-2.527,4.216-4.413c1.143-1.89,2.006-4.119,2.586-6.697
		c0.582-2.577,0.871-5.398,0.871-8.462c0-3.045-0.289-5.832-0.871-8.365c-0.58-2.529-1.443-4.713-2.586-6.543
		c-1.144-1.831-2.549-3.254-4.216-4.267c-1.668-1.012-3.583-1.517-5.759-1.517c-2.211,0-4.147,0.505-5.815,1.517
		c-1.666,1.013-3.065,2.436-4.203,4.267c-1.132,1.83-1.983,4.014-2.554,6.543c-0.57,2.533-0.86,5.32-0.86,8.365
		c0,3.063,0.29,5.885,0.86,8.462c0.57,2.578,1.422,4.808,2.554,6.697c1.138,1.886,2.537,3.358,4.203,4.413
		C562.587,704.771,564.523,705.298,566.734,705.298"/>
	<polygon clip-path="url(#SVGID_2_)" points="611.033,662.289 614.605,662.289 639.438,694.605 639.725,694.605 639.725,662.289 
		642.524,662.289 642.524,707.496 641.039,707.496 614.145,671.584 613.919,671.584 613.919,706.466 611.033,706.466 	"/>
	<path clip-path="url(#SVGID_2_)" d="M289.542,512.384c-6.651,0.449-13.816,0.823-21.5,1.137
		c-7.681,0.313-15.442,0.447-23.276,0.401c-7.837-0.047-15.556-0.381-23.162-1.007c-7.607-0.62-14.621-1.688-21.042-3.204
		c-1.07-0.271-1.587-1.027-1.546-2.272c0.038-1.251,0.017-2.36-0.059-3.345c-0.384-0.084-0.709-0.042-0.975,0.135
		c-0.268,0.182-0.592,0.182-0.974,0c0.382,6.238,0.382,12.434,0,18.583c-0.384,6.149-0.881,12.344-1.49,18.577h2.179
		c0.379-1.333,0.572-2.625,0.572-3.877c0-1.333,0.058-2.604,0.172-3.809c0.116-1.203,0.44-2.271,0.974-3.204
		c0.535-0.939,1.567-1.674,3.099-2.21c1.45-0.531,3.017-0.932,4.699-1.199c1.681-0.27,3.285-0.536,4.816-0.801
		c8.484-1.605,16.971-2.965,25.454-4.081c8.488-1.109,17.008-1.939,25.57-2.471c-0.917,1.516-1.779,3.122-2.579,4.811
		c-0.803,1.693-1.703,3.298-2.696,4.814c-7.643,12.564-15.347,24.978-23.105,37.229c-7.757,12.25-15.688,24.486-23.79,36.691
		c-3.44,5.168-6.899,10.274-10.377,15.31c-3.479,5.032-7.321,9.688-11.523,13.966c0.379,0.447,0.934,0.536,1.662,0.269
		c0.725-0.269,1.355-0.399,1.891-0.399c13.53-0.536,27.307-0.489,41.336,0.131c14.025,0.625,27.727,2.271,41.107,4.945
		c1.068,0.183,2.079,0.317,3.039,0.401c0.954,0.093,1.852,0.537,2.693,1.338c0.612,0.532,0.839,1.289,0.687,2.271
		c-0.152,0.98-0.074,1.826,0.233,2.541l1.033-0.269c0-6.593,0.321-13.121,0.975-19.583c0.647-6.461,1.39-12.942,2.233-19.447h-2.525
		c-0.075,0.891-0.112,2.137-0.112,3.741c0,1.518-0.079,3.054-0.231,4.612s-0.438,2.966-0.858,4.21
		c-0.421,1.251-1.089,2.006-2.007,2.272c-1.606,0.45-4.055,0.871-7.339,1.271c-3.286,0.401-7.014,0.781-11.178,1.137
		c-4.167,0.354-8.562,0.666-13.186,0.933c-4.627,0.271-9.059,0.467-13.301,0.604c-4.243,0.13-8.084,0.198-11.523,0.198
		c-3.365,0-5.889-0.089-7.57-0.266c11.163-19.605,22.896-38.542,35.203-56.812C263.551,548.387,276.316,530.294,289.542,512.384"/>
	<path clip-path="url(#SVGID_2_)" d="M418.539,603.552c0-3.387-0.537-6.442-1.609-9.16c-1.068-2.717-2.52-5.031-4.354-6.948
		c-1.836-1.917-3.977-3.475-6.423-4.68c-2.444-1.203-5.006-2.027-7.682-2.475c-2.522-0.443-5.294-0.708-8.311-0.802
		c-3.021-0.088-6.079-0.021-9.177,0.204c-3.093,0.224-6.131,0.599-9.113,1.135c-2.983,0.532-5.695,1.205-8.14,2.006
		c-0.461,0.177-0.63,0.444-0.519,0.798c0.117,0.359,0.251,0.672,0.403,0.938c1.988-0.354,3.917-0.756,5.793-1.204
		c1.869-0.442,3.8-0.708,5.788-0.802c0.533-0.089,1.033-0.042,1.489,0.135c0.459,0.178,0.955,0.136,1.492-0.135
		c2.445,0.183,4.912,0.939,7.398,2.271c2.481,1.34,4.639,2.992,6.476,4.946c2.981,3.21,4.989,7.067,6.021,11.564
		c1.033,4.502,1.163,8.847,0.4,13.037c-0.766,4.189-2.331,7.884-4.699,11.095c-2.372,3.205-5.43,5.169-9.173,5.877l-2.296,1.074
		c-3.822,1.156-7.854,1.537-12.097,1.137c-4.242-0.402-8.236-1.137-11.982-2.211c-4.125-1.156-8.065-2.871-11.811-5.143
		c-3.745-2.272-7.223-4.992-10.434-8.155c-3.208-3.163-6.078-6.729-8.599-10.693c-2.521-3.966-4.548-8.264-6.08-12.902
		c-1.221-3.475-2.158-6.906-2.807-10.292c-0.651-3.389-1.049-6.952-1.203-10.694c0-0.536,0.018-1.36,0.054-2.474
		c0.041-1.11,0.075-2.294,0.116-3.539c0.038-1.251,0.058-2.408,0.058-3.476c0-1.073-0.075-1.876-0.229-2.408
		c0.305-4.898,1.262-9.869,2.867-14.902c1.604-5.035,3.746-9.672,6.418-13.904c2.676-4.23,5.829-7.842,9.462-10.828
		c3.629-2.986,7.662-4.966,12.096-5.951c4.662-0.979,9.727-1.444,15.193-1.402c5.465,0.047,10.702,0.958,15.708,2.741
		c5.006,1.782,9.422,4.591,13.245,8.422c3.822,3.834,6.382,8.957,7.683,15.373l-0.229,5.08l0.688,0.401
		c0.38-1.245,0.685-2.496,0.917-3.741c0.229-1.251,0.457-2.497,0.688-3.747c0.917-4.988,2.235-9.6,3.956-13.836
		c1.718-4.23,3.573-8.619,5.561-13.168c0.153-0.354,0.285-0.734,0.402-1.135c0.112-0.403,0.018-0.777-0.289-1.138
		c-0.841,0.361-1.416,0.986-1.717,1.877c-0.309,0.891-0.881,1.558-1.721,2.001c-6.04-0.709-12.078-1.422-18.117-2.137
		c-6.039-0.714-12.118-1.156-18.232-1.339c-4.662-0.177-9.861,0.026-15.595,0.604c-5.731,0.579-11.425,1.694-17.084,3.34
		c-5.657,1.653-10.988,3.925-15.994,6.815c-5.009,2.897-9.119,6.53-12.327,10.898c-3.21,4.277-5.735,8.937-7.568,13.969
		c-1.832,5.036-3.133,10.313-3.897,15.838c-0.228,0.182-0.385,0.65-0.461,1.406c-0.075,0.756-0.111,1.584-0.111,2.471
		c0,0.802,0.018,1.583,0.053,2.338c0.041,0.762,0.058,1.273,0.058,1.538c-0.075,2.054-0.169,4.102-0.285,6.149
		c-0.117,2.054-0.135,4.101-0.058,6.149c0.459,8.823,2.292,16.867,5.505,24.132c3.21,7.266,7.872,13.564,13.987,18.91
		c5.962,5.171,12.555,8.871,19.779,11.101c7.223,2.225,14.544,3.34,21.959,3.34c3.898,0,7.854-0.135,11.869-0.401
		c4.009-0.266,7.983-0.802,11.92-1.604c3.938-0.801,7.817-1.912,11.64-3.34c3.822-1.428,7.455-3.299,10.893-5.619
		c3.822-2.399,6.784-5.699,8.885-9.89c2.103-4.189,3.346-8.774,3.728-13.768c-0.073,0-0.132-0.067-0.172-0.2
		c-0.039-0.132,0.018-0.2,0.172-0.2L418.539,603.552z"/>
	<path clip-path="url(#SVGID_2_)" d="M650.726,642.051c-2.979,1.333-5.522,1.333-7.624,0c-2.101-1.34-3.878-3.278-5.331-5.815
		c-1.452-2.542-2.679-5.348-3.671-8.421c-0.991-3.076-1.873-5.77-2.638-8.088c-1.22-3.745-2.711-7.979-4.47-12.7
		c-1.761-4.726-3.84-9.16-6.248-13.303c-2.409-4.144-5.182-7.639-8.315-10.49c-3.132-2.854-6.762-4.277-10.893-4.277
		c2.219-0.893,4.51-1.94,6.88-3.145c2.37-1.203,4.645-2.604,6.826-4.209c2.175-1.604,4.183-3.43,6.018-5.481
		c1.833-2.048,3.324-4.367,4.473-6.952c0.838-1.958,1.472-4.231,1.889-6.815c0.423-2.585,0.631-5.216,0.631-7.889
		c0-2.675-0.228-5.253-0.688-7.754c-0.455-2.492-1.143-4.723-2.061-6.682c-1.073-2.318-2.469-4.434-4.188-6.352
		c-1.721-1.914-3.611-3.586-5.676-5.013c-2.062-1.423-4.243-2.58-6.536-3.475c-2.293-0.887-4.547-1.471-6.764-1.735
		c-4.054-0.445-8.22-0.445-12.497,0c-4.284,0.446-8.486,0.759-12.613,0.938c-4.206,0.265-8.392,0.332-12.558,0.198
		c-4.166-0.135-8.313-0.646-12.438-1.538l-0.345,2.408c1.146,0.177,2.294,0.265,3.437,0.265c1.226,0,2.409,0.089,3.561,0.267
		c0.759,0.181,1.389,0.896,1.891,2.14c0.496,1.252,0.819,2.231,0.973,2.939c1.22,6.953,2.085,14.305,2.579,22.058
		c0.497,7.755,0.767,15.618,0.805,23.592c0.036,7.978-0.098,15.867-0.402,23.663c-0.308,7.801-0.688,15.215-1.147,22.255
		c-0.151,2.857-0.288,5.729-0.397,8.625c-0.118,2.896-0.367,5.726-0.747,8.488c-0.158,0.979-0.517,1.694-1.092,2.138
		c-0.57,0.447-1.241,0.756-2.007,0.936c-0.765,0.179-1.546,0.289-2.35,0.335c-0.8,0.047-1.545,0.199-2.237,0.466v2.275
		c5.657-1.428,11.104-2.075,16.346-1.938c5.231,0.131,10.717,0.865,16.451,2.205v-1.34c-0.613-0.443-1.266-0.757-1.947-0.933
		c-0.69-0.179-1.377-0.313-2.067-0.402c-0.688-0.087-1.377-0.201-2.064-0.333c-0.688-0.135-1.336-0.423-1.948-0.87
		c-0.841-8.468-1.396-16.932-1.665-25.399c-0.268-8.466-0.475-16.93-0.628-25.398c1.377,0.266,2.905,0.334,4.586,0.203
		c1.68-0.136,3.362-0.246,5.047-0.336c1.682-0.086,3.302-0.024,4.871,0.201c1.564,0.223,2.959,0.824,4.184,1.803
		c1.072,0.891,2.182,2.095,3.325,3.612c1.149,1.515,2.274,3.142,3.386,4.876c1.105,1.741,2.119,3.499,3.039,5.281
		c0.916,1.785,1.72,3.344,2.404,4.678c2.142,4.367,4.092,8.556,5.851,12.569c1.757,4.007,3.688,7.727,5.79,11.159
		c2.102,3.432,4.602,6.573,7.508,9.425c2.906,2.855,6.54,5.257,10.895,7.217c2.139,0.981,4.3,1.627,6.479,1.939
		c2.178,0.312,4.373,0.156,6.594-0.47c-0.079-0.267-0.117-0.577-0.117-0.934C651.07,642.447,650.956,642.228,650.726,642.051
		 M598.729,577.417c-2.258,0.933-4.586,1.49-6.995,1.669c-2.409,0.181-4.854,0.201-7.34,0.066c-2.485-0.135-4.871-0.197-7.164-0.197
		v-29.678c0-9.89,0.303-19.828,0.916-29.812c1.149-1.335,2.73-2.156,4.759-2.471c2.026-0.312,3.801-0.556,5.334-0.734
		c3.741-0.448,7.048,0.286,9.914,2.203c2.868,1.918,5.273,4.545,7.229,7.887c1.947,3.343,3.397,7.153,4.353,11.431
		c0.957,4.279,1.418,8.599,1.377,12.966c-0.039,4.366-0.591,8.488-1.663,12.365c-1.071,3.877-2.637,7.107-4.7,9.692
		C602.988,574.941,600.982,576.48,598.729,577.417"/>
	<path clip-path="url(#SVGID_2_)" d="M768.483,551.149l-0.343-0.535c-0.074-0.179-0.114-0.445-0.114-0.804
		c-0.612-1.955-1.53-4.143-2.75-6.55c-1.224-2.404-2.601-4.744-4.128-7.015c-1.53-2.272-3.117-4.435-4.758-6.482
		c-1.645-2.053-3.156-3.748-4.532-5.082c-6.266-5.971-13.07-10.046-20.409-12.23c-7.335-2.183-14.982-3.189-22.929-3.01l-0.23,0.27
		l-21.786,2.538c-4.053,0.536-8.068,0.469-12.043-0.199c-3.973-0.671-7.987-1.183-12.039-1.537l-0.341,1.736
		c1.145,0.265,2.504,0.536,4.068,0.802c1.567,0.266,2.736,0.938,3.499,2.006c0.455,0.714,0.877,1.851,1.262,3.407
		c0.38,1.558,0.705,3.232,0.975,5.015c0.266,1.781,0.494,3.543,0.687,5.279c0.189,1.74,0.363,3.053,0.515,3.943l-0.229,0.402
		l0.345,0.401c0,0.533,0.06,1.537,0.17,3.006c0.116,1.47,0.251,3.163,0.401,5.082c0.154,1.917,0.305,3.944,0.461,6.08
		c0.151,2.138,0.286,4.102,0.401,5.884c0.113,1.783,0.17,3.299,0.17,4.544c0,1.25-0.038,1.959-0.114,2.136
		c0.23,1.251,0.31,2.476,0.23,3.679c-0.079,1.204,0,2.429,0.228,3.674l-0.228,0.267c0.152,1.787,0.228,4.413,0.228,7.888
		c0,3.388-0.075,7.197-0.228,11.429c-0.154,4.235-0.363,8.645-0.63,13.236c-0.273,4.592-0.612,8.937-1.03,13.033
		c-0.423,4.101-0.919,7.753-1.496,10.96c-0.57,3.209-1.201,5.528-1.89,6.951c-1.375,0.713-2.788,1.249-4.243,1.604
		c-1.452,0.358-2.903,0.759-4.356,1.203v0.536c0.304,1.245,0.877,1.737,1.72,1.471s1.565-0.536,2.18-0.803
		c0.917-0.443,2.1-0.714,3.555-0.804c1.449-0.088,2.638-0.134,3.553-0.134c3.744,0,7.318,0.224,10.722,0.671
		c3.401,0.443,6.935,0.98,10.606,1.601c5.122,0.897,10.266,1.36,15.421,1.406c5.162,0.047,10.204-0.47,15.138-1.537
		c4.928-1.068,9.724-2.762,14.392-5.082c4.662-2.313,9.096-5.48,13.297-9.487c4.592-4.367,8.331-9.313,11.236-14.842
		c2.905-5.523,5.028-11.361,6.365-17.508c1.334-6.15,1.912-12.501,1.722-19.052C770.989,564.047,770.09,557.563,768.483,551.149
		 M750.369,591.252c-1.454,7.484-3.71,14.284-6.761,20.386c-3.063,6.103-6.867,11.183-11.415,15.236
		c-4.549,4.055-9.766,6.484-15.647,7.286l-0.232-0.266c-3.134,0.266-6.418,0.332-9.86,0.198c-3.438-0.131-6.533-1.226-9.288-3.273
		c-1.067-0.177-2.023-0.67-2.865-1.468c-0.842-0.805-1.68-1.652-2.522-2.545c-0.919-2.672-1.603-5.523-2.063-8.556
		c-0.462-3.027-0.805-6.122-1.034-9.287c-0.227-3.162-0.36-6.305-0.402-9.426c-0.04-3.117-0.094-6.102-0.169-8.957
		c0-0.622-0.022-1.96-0.059-4.008c-0.04-2.049-0.059-4.19-0.059-6.415c0-2.231-0.018-4.257-0.059-6.086
		c-0.037-1.824-0.093-2.872-0.168-3.142l-0.116-1.2c0.304-2.229,0.304-4.501,0-6.819l0.46-1.601
		c-0.156-1.251-0.233-2.986-0.233-5.217c0-2.313,0.021-4.899,0.058-7.754c0.041-2.851,0.135-5.836,0.288-8.953
		c0.151-3.121,0.344-6.085,0.576-8.89c0.228-2.81,0.455-5.369,0.689-7.688c0.228-2.317,0.493-4.053,0.799-5.215
		c1.067-1.511,2.468-2.47,4.185-2.872c1.719-0.4,3.342-0.692,4.875-0.87c8.789-0.98,16.431-0.088,22.934,2.673
		c6.494,2.763,11.882,6.75,16.164,11.965c4.283,5.211,7.53,11.318,9.749,18.311c2.213,6.998,3.497,14.284,3.84,21.857
		C752.376,576.235,751.822,583.766,750.369,591.252"/>
	<path clip-path="url(#SVGID_2_)" d="M176.954,509.488c-0.384,0.18-0.708,0.38-0.975,0.604c-0.268,0.222-0.555,0.465-0.859,0.735
		l-0.803,0.803c-0.154,0.177-0.307,0.311-0.458,0.401c-0.154,0.09-0.306,0.219-0.457,0.4c-1.075,0.799-2.603,1.471-4.589,2.002
		c-1.99,0.537-4.129,0.983-6.421,1.34c-2.294,0.354-4.511,0.625-6.649,0.802c-2.142,0.177-3.9,0.354-5.275,0.532l-0.344-0.402
		l-0.344,0.402c-4.816,0.448-9.635,0.722-14.449,1.005c-2.5,0.145-5.968,0.966-7.591,1.459c-1.622,0.495-4.65,1.868-6.104,2.467
		c-0.912,0.378-1.871,0.7-2.965,1.276c-9.63,3.911-17.299,10.521-23.299,18.612c-6.002,8.092-10.416,17.691-13.245,28.806
		c-0.611,2.58-1.224,5.245-1.835,8.003c-0.611,2.755-1.031,5.464-1.258,8.135c-0.154,1.955-0.25,3.935-0.288,5.934
		c-0.041,2,0.037,3.983,0.229,5.938c0.189,1.954,0.534,3.888,1.031,5.798c0.496,1.913,1.556,4.834,1.92,6.788
		c0.214,1.157,0.573,1.533,1.114,5.624l0.937,5.464c0.75,7.866,1.028,7.805,1.313,11.8c0.187,2.622,0.187,5.682-0.75,8.74
		l0.095-0.13c-0.948,4.009-1.603,4.88-2.525,6.098c-1.58,2.096-3.328,4.006-6.463,4.719c-0.112,0.291-0.11,0.549,0.012,0.777
		c0.161,0.301,0.273,0.588,0.327,0.863c2.166-0.843,4.098-2.068,5.801-3.683c1.706-1.613,3.242-3.496,4.611-5.652
		c2.773-4.31,5.083-8.995,6.264-13.207c0,0,0.188-0.072,0.561-2.549c0.287-1.894,0.674-6.47,0.811-10.061l0.111,0.002
		c0.154-4.798,0.292-8.565,0.366-9.526c0.229-3.019,0.382-5.822,0.458-8.397l-0.229-0.669c0.381-2.846,0.574-5.692,0.574-8.539
		c0-2.932,0.229-5.82,0.687-8.667c3.517-0.71,7.069-1.335,10.663-1.867c3.591-0.532,7.186-1.089,10.78-1.667
		c3.591-0.574,7.183-1.221,10.776-1.935c3.593-0.71,7.109-1.601,10.551-2.665c0.685,0.177,1.374,0.156,2.063-0.068
		c0.688-0.223,1.377-0.286,2.063-0.202c0.077,0.535,0.134,1.334,0.172,2.402c0.038,1.068,0.096,2.18,0.171,3.333v3.066
		c0,0.358,0.019,0.65,0.059,0.869c0.037,0.224,0.058,0.424,0.058,0.601c-0.079,0.177-0.117,0.49-0.117,0.933
		c0,0.449,0.019,0.913,0.059,1.402c0.037,0.485-0.021,0.954-0.172,1.398c0.23,2.936,0.403,6.403,0.517,10.402
		c0.113,4.003,0.19,8.112,0.229,12.335c0.038,4.225,0.058,8.338,0.058,12.342c0,3.998-0.042,7.466-0.114,10.401
		c-0.386,0.443-1.491,0.888-3.327,1.334c-0.843,0.179-1.776,0.355-2.809,0.533c-1.033,0.178-2.083,0.401-3.153,0.667
		c-2.217,0.537-4.454,1.27-6.707,2.204c-2.255,0.938-4.147,2.295-5.677,4.08c-0.154,0.62-0.269,1.288-0.345,2.003
		c-0.075,0.712,0.076,1.427,0.461,2.141c0.305-0.537,0.552-1.027,0.744-1.469c0.19-0.449,0.403-0.892,0.63-1.341
		c0.382-1.067,0.879-1.827,1.492-2.272c0.918-0.626,2.389-1.224,4.413-1.803c2.025-0.582,4.358-1.088,6.996-1.536
		c2.636-0.448,5.446-0.846,8.428-1.204c2.981-0.354,5.849-0.646,8.6-0.87c2.751-0.22,5.254-0.355,7.509-0.403
		c2.256-0.039,3.995-0.067,5.22-0.067l0.457-0.399l2.867,0.271l0.343-2.543c-1.301-0.179-2.541-0.151-3.726,0.067
		c-1.187,0.224-2.391,0.249-3.611,0.068l-1.033-1.201c-0.994-3.737-1.834-8.002-2.523-12.806c-0.686-4.8-1.26-9.736-1.719-14.805
		c-0.458-5.067-0.822-10.005-1.09-14.807c-0.269-4.802-0.555-9.161-0.858-13.074l0.228-0.268c-0.228-2.309-0.286-4.599-0.172-6.867
		c0.116-2.268,0.096-4.557-0.056-6.871l-0.118-2.534c0.231-0.709,0.231-1.445,0-2.2c-0.226-0.755-0.188-1.49,0.118-2.205
		c-0.155-1.95-0.192-4.62-0.118-7.999c0.077-3.378,0.211-6.872,0.404-10.47c0.19-3.603,0.438-7.095,0.744-10.472
		c0.307-3.38,0.574-6.138,0.804-8.275c0.532-0.62,1.147-0.843,1.833-0.667c0.993-0.622,2.065-0.887,3.212-0.799
		c1.147,0.089,2.217-0.264,3.211-1.067c0.763,0,1.949-0.178,3.553-0.532c1.605-0.355,3.249-0.845,4.93-1.465
		c1.682-0.625,3.192-1.335,4.531-2.138c1.334-0.797,2.195-1.643,2.58-2.534C180.01,509.133,178.634,508.685,176.954,509.488
		 M142.66,573.338c-2.83,0.714-5.733,1.116-8.714,1.205c-2.982,0.087-5.963,0.024-8.944-0.2c-2.981-0.224-5.962-0.537-8.943-0.937
		c-2.983-0.403-5.888-0.734-8.715-1.001l-0.23,0.13c-1.758-0.176-3.495-0.287-5.217-0.333c-1.718-0.042-3.46-0.199-5.216-0.469
		c0.459-4.274,1.165-8.686,2.122-13.231c0.954-4.544,2.293-8.869,4.013-12.966c1.72-4.099,3.879-7.82,6.478-11.162
		c2.598-3.345,5.732-5.993,9.403-7.957c1.376-0.71,2.79-1.313,4.242-1.802c1.452-0.49,2.867-1.091,4.243-1.805
		c2.063-0.177,4.088-0.467,6.077-0.868c1.988-0.401,4.051-0.647,6.192-0.736c0.762,3.831,1.298,7.239,1.606,10.225
		c0.304,2.985,0.514,5.884,0.63,8.691c0.115,2.805,0.229,5.659,0.345,8.552c0.115,2.898,0.325,6.128,0.631,9.693
		c-0.306,0.714-0.326,1.427-0.059,2.142c0.268,0.713,0.21,1.422-0.172,2.136L142.66,573.338z"/>
	<path clip-path="url(#SVGID_2_)" d="M534.03,509.488c-0.383,0.18-0.707,0.38-0.975,0.604c-0.268,0.222-0.555,0.465-0.86,0.735
		l-0.802,0.803c-0.155,0.177-0.307,0.311-0.457,0.401c-0.155,0.09-0.308,0.219-0.458,0.4c-1.075,0.799-2.604,1.471-4.591,2.002
		c-1.987,0.537-4.127,0.983-6.419,1.34c-2.294,0.354-4.51,0.625-6.649,0.802c-2.139,0.177-3.899,0.354-5.272,0.532l-0.345-0.402
		l-0.347,0.402c-4.815,0.448-9.633,0.722-14.448,1.005c-2.501,0.145-5.968,0.966-7.591,1.459c-1.622,0.495-4.652,1.868-6.104,2.467
		c-0.912,0.378-1.869,0.7-2.965,1.276c-9.631,3.911-17.302,10.521-23.299,18.612c-6.003,8.092-10.418,17.691-13.244,28.806
		c-0.611,2.58-1.227,5.245-1.834,8.003c-0.613,2.755-1.033,5.464-1.261,8.135c-0.155,1.955-0.253,3.935-0.288,5.934
		c-0.039,2,0.035,3.983,0.229,5.938c0.189,1.954,0.535,3.888,1.031,5.798c0.499,1.913,1.559,4.834,1.92,6.788
		c0.214,1.157,0.576,1.533,1.114,5.624l0.938,5.464c0.752,7.866,1.029,7.805,1.313,11.8c0.188,2.622,0.188,5.682-0.75,8.74
		l0.096-0.13c-0.949,4.009-1.604,4.88-2.525,6.098c-1.58,2.096-3.327,4.006-6.461,4.719c-0.114,0.291-0.113,0.549,0.01,0.777
		c0.162,0.301,0.275,0.588,0.328,0.863c2.164-0.843,4.098-2.068,5.801-3.683c1.707-1.613,3.242-3.496,4.61-5.652
		c2.771-4.31,5.084-8.995,6.264-13.207c0,0,0.188-0.072,0.563-2.549c0.289-1.894,0.674-6.47,0.811-10.061l0.11,0.002
		c0.152-4.798,0.292-8.565,0.366-9.526c0.228-3.019,0.382-5.822,0.458-8.397l-0.23-0.669c0.383-2.846,0.574-5.692,0.574-8.539
		c0-2.932,0.23-5.82,0.688-8.667c3.515-0.71,7.07-1.335,10.663-1.867c3.595-0.532,7.187-1.089,10.779-1.667
		c3.594-0.574,7.184-1.221,10.778-1.935c3.594-0.71,7.108-1.601,10.55-2.665c0.688,0.177,1.377,0.156,2.064-0.068
		c0.687-0.223,1.374-0.286,2.063-0.202c0.075,0.535,0.134,1.334,0.172,2.402c0.036,1.068,0.097,2.18,0.173,3.333v3.066
		c0,0.358,0.018,0.65,0.057,0.869c0.038,0.224,0.06,0.424,0.06,0.601c-0.079,0.177-0.116,0.49-0.116,0.933
		c0,0.449,0.018,0.913,0.057,1.402c0.038,0.485-0.02,0.954-0.171,1.398c0.23,2.936,0.399,6.403,0.515,10.402
		c0.114,4.003,0.19,8.112,0.231,12.335c0.035,4.225,0.057,8.338,0.057,12.342c0,3.998-0.043,7.466-0.115,10.401
		c-0.386,0.443-1.489,0.888-3.326,1.334c-0.841,0.179-1.775,0.355-2.809,0.533s-2.082,0.401-3.153,0.667
		c-2.218,0.537-4.454,1.27-6.707,2.204c-2.256,0.938-4.148,2.295-5.678,4.08c-0.153,0.62-0.269,1.288-0.343,2.003
		c-0.078,0.712,0.074,1.427,0.459,2.141c0.304-0.537,0.553-1.027,0.744-1.469c0.191-0.449,0.401-0.892,0.63-1.341
		c0.383-1.067,0.879-1.827,1.49-2.272c0.919-0.626,2.392-1.224,4.416-1.803c2.025-0.582,4.358-1.088,6.993-1.536
		c2.637-0.448,5.448-0.846,8.43-1.204c2.98-0.354,5.85-0.646,8.601-0.87c2.75-0.22,5.256-0.355,7.509-0.403
		c2.254-0.039,3.993-0.067,5.218-0.067l0.458-0.399l2.866,0.271l0.344-2.543c-1.3-0.179-2.541-0.151-3.724,0.067
		c-1.187,0.224-2.395,0.249-3.614,0.068l-1.03-1.201c-0.996-3.737-1.836-8.002-2.525-12.806c-0.685-4.8-1.262-9.736-1.72-14.805
		c-0.455-5.067-0.821-10.005-1.087-14.807c-0.27-4.802-0.557-9.161-0.862-13.074l0.23-0.268c-0.23-2.309-0.286-4.599-0.171-6.867
		s0.095-4.557-0.06-6.871l-0.113-2.534c0.231-0.709,0.231-1.445,0-2.2c-0.229-0.755-0.189-1.49,0.113-2.205
		c-0.151-1.95-0.188-4.62-0.113-7.999s0.208-6.872,0.402-10.47c0.19-3.603,0.438-7.095,0.743-10.472
		c0.306-3.38,0.575-6.138,0.803-8.275c0.534-0.62,1.149-0.843,1.834-0.667c0.993-0.622,2.065-0.887,3.214-0.799
		c1.146,0.089,2.215-0.264,3.21-1.067c0.761,0,1.947-0.178,3.552-0.532c1.608-0.355,3.249-0.845,4.934-1.465
		c1.68-0.625,3.19-1.335,4.529-2.138c1.333-0.797,2.196-1.643,2.577-2.534C537.086,509.133,535.713,508.685,534.03,509.488
		 M499.736,573.338c-2.829,0.714-5.73,1.116-8.714,1.205c-2.981,0.087-5.962,0.024-8.943-0.2c-2.981-0.224-5.964-0.537-8.944-0.937
		c-2.982-0.403-5.887-0.734-8.716-1.001l-0.23,0.13c-1.757-0.176-3.494-0.287-5.215-0.333c-1.719-0.042-3.46-0.199-5.218-0.469
		c0.461-4.274,1.164-8.686,2.124-13.231c0.954-4.544,2.292-8.869,4.012-12.966c1.72-4.099,3.878-7.82,6.478-11.162
		c2.597-3.345,5.733-5.993,9.399-7.957c1.381-0.71,2.792-1.313,4.246-1.802c1.45-0.49,2.866-1.091,4.243-1.805
		c2.063-0.177,4.087-0.467,6.076-0.868c1.986-0.401,4.049-0.647,6.192-0.736c0.765,3.831,1.297,7.239,1.604,10.225
		c0.306,2.985,0.515,5.884,0.631,8.691c0.113,2.805,0.229,5.659,0.345,8.552c0.113,2.898,0.323,6.128,0.63,9.693
		c-0.307,0.714-0.325,1.427-0.058,2.142c0.269,0.713,0.209,1.422-0.173,2.136L499.736,573.338z"/>
</g>
</svg>
