<svg width="301" height="134" viewBox="0 0 301 134" fill="none" xmlns="http://www.w3.org/2000/svg">
<mask id="mask0_2_29" style="mask-type:luminance" maskUnits="userSpaceOnUse" x="0" y="0" width="301" height="134">
<path d="M300.685 0H0V133.883H300.685V0Z" fill="white"/>
</mask>
<g mask="url(#mask0_2_29)">
<path d="M286.094 79.4739C285.378 78.8624 284.572 78.5131 283.587 78.2511C282.693 77.9891 281.35 77.9019 279.559 77.9019H252.346C251.809 79.6484 251.273 81.7445 251.003 82.5305L244.468 107.246C244.111 108.731 243.216 112.049 242.858 113.272H256.911C257.359 111.351 257.807 109.429 258.075 108.556L260.133 100.696H274.904C277.231 100.696 278.843 100.609 279.828 100.434C280.813 100.259 281.796 99.8225 282.693 99.124C284.393 97.8139 285.557 95.8052 286.273 93.0106L287.973 86.7225C288.243 85.6745 288.422 84.8012 288.422 84.2772C288.422 82.3559 287.706 80.6964 286.094 79.4739ZM274.099 86.5478L272.757 91.6133C272.397 93.0106 271.951 93.8839 271.414 94.3206C270.875 94.7572 269.802 94.9319 268.28 94.9319H261.745L264.7 83.7532H271.414C272.487 83.7532 273.203 83.8405 273.651 84.1025C274.009 84.3645 274.278 84.8012 274.278 85.4998C274.278 85.8492 274.188 86.1985 274.099 86.5478Z" fill="black"/>
<path d="M211.886 97.2899L223.344 77.9019H241.606C241.158 79.8232 240.352 82.4432 239.994 83.9278C239.994 83.9278 232.655 111.613 232.206 113.272H218.152C218.867 110.652 219.406 108.731 219.852 107.246L225.672 85.3252L209.201 113.272H199.353L197.474 85.4125C197.474 85.4125 190.85 110.739 190.133 113.272H184.046C184.673 111.089 185.389 108.731 185.747 107.246L192.282 82.5305C192.551 81.6572 192.909 80.2599 193.536 77.9019H210.632L211.886 97.2899Z" fill="black"/>
<path d="M182.882 77.9019C182.255 79.9979 174.02 111.089 173.393 113.272H158.981C159.697 110.565 168.649 79.1244 168.917 77.9019H182.882Z" fill="black"/>
<path d="M154.326 107.508L152.804 113.359H120.489L129.978 77.9019H143.942L136.154 107.508H154.326Z" fill="black"/>
<path d="M93.7243 87.1593L89.2484 104.277C88.9799 105.237 88.8904 105.849 88.8904 105.936C88.8904 106.547 89.2484 106.984 89.875 107.246C90.3226 107.421 91.0388 107.508 92.0234 107.508H97.2153C98.3792 107.508 99.1848 107.333 99.4534 107.071C99.7219 106.809 100.08 105.936 100.528 104.451L105.093 87.3338C105.182 86.8973 105.272 86.6352 105.361 86.3732C105.451 85.9365 105.54 85.5872 105.54 85.3252C105.54 84.3645 104.645 83.8405 102.855 83.8405H97.7524C96.4097 83.8405 95.5146 84.0152 95.0669 84.4518C94.53 84.8012 94.0823 85.6745 93.7243 87.1593ZM92.0234 77.9019H109.658C111.449 77.9019 112.881 77.9891 113.866 78.2511C114.85 78.5131 115.745 78.8624 116.461 79.4739C118.252 80.8712 119.147 82.7925 119.147 85.0632C119.147 85.9365 118.968 86.8973 118.699 88.2073L114.044 105.674C113.686 107.159 113.239 108.294 112.702 109.08C112.254 109.866 111.627 110.652 110.732 111.263C109.837 111.962 108.763 112.486 107.51 112.835C106.257 113.185 104.645 113.272 102.676 113.272H84.1459C82.0872 113.272 80.5653 113.185 79.6702 113.01C78.7751 112.835 77.9694 112.399 77.2532 111.787C75.6419 110.39 74.7468 108.643 74.7468 106.46C74.7468 105.674 75.0154 104.539 75.4628 103.054L80.0282 85.6745C80.4759 84.0152 81.013 82.6179 81.6395 81.6572C82.2661 80.6964 83.0717 79.9104 84.1459 79.3864C86.2049 78.4259 88.7113 77.9019 92.0234 77.9019Z" fill="black"/>
<path d="M300.685 78.2511C300.685 79.5611 300.239 80.6964 299.254 81.6571C298.269 82.6179 297.105 83.0544 295.762 83.0544C294.42 83.0544 293.256 82.6179 292.271 81.6571C291.286 80.6964 290.84 79.5611 290.84 78.2511C290.84 76.9411 291.286 75.8058 292.271 74.8451C293.256 73.8845 294.42 73.4478 295.762 73.4478C297.105 73.4478 298.269 73.8845 299.254 74.8451C300.239 75.8058 300.685 76.9411 300.685 78.2511ZM299.791 78.2511C299.791 77.2031 299.433 76.2425 298.627 75.4565C297.821 74.6705 296.836 74.321 295.762 74.321C294.689 74.321 293.704 74.6705 292.898 75.4565C292.092 76.2425 291.734 77.1158 291.734 78.2511C291.734 79.3864 292.092 80.2598 292.898 81.0459C293.704 81.8319 294.599 82.1811 295.762 82.1811C296.926 82.1811 297.821 81.8319 298.627 81.0459C299.433 80.2598 299.791 79.2991 299.791 78.2511ZM298.179 80.9584H297.196C297.105 80.6964 297.015 80.2598 297.015 79.7358C297.015 79.0371 296.657 78.6878 295.941 78.6878H294.689V80.9584H293.793V75.4565H295.941C297.284 75.4565 298 75.9805 298 77.1158C298 77.7271 297.821 78.1638 297.374 78.4258C297.732 78.6878 297.821 79.2118 297.821 79.8231C297.821 80.1724 297.911 80.6091 298.179 80.9584ZM297.105 77.1158C297.105 76.5918 296.747 76.3298 295.941 76.3298H294.599V77.9891H295.941C296.747 77.9018 297.105 77.6398 297.105 77.1158Z" fill="black"/>
<path d="M52.9042 56.9417L63.6462 67.4216L74.3881 77.989L70.4495 92.3118L66.5107 106.635L51.83 110.477L37.1493 114.32L26.318 103.84L15.5759 93.3598L19.5146 78.9498L23.4534 64.627L38.1341 60.7843L52.9042 56.9417Z" fill="black"/>
<path d="M95.6038 15.2833L106.346 25.7634L117.088 36.2435L113.149 50.6535L109.21 64.9763L94.5296 68.8189L79.8489 72.6617L69.107 62.1815L58.365 51.6143L62.3038 37.2915L66.2424 22.9686L80.9231 19.126L95.6038 15.2833Z" fill="black"/>
<path d="M11.8162 45.8503L1.70081 35.8941L5.37099 22.4449L9.04116 8.90805L23.0058 5.24004L36.8808 1.65934L46.9961 11.5281L57.1114 21.3968L53.4414 34.9336L49.6816 48.4703L35.8066 52.1384L21.9316 55.8062L11.8162 45.8503ZM37.2388 0L22.5581 3.84269L7.87745 7.68538L3.93872 22.0081L0 36.3309L10.742 46.811L21.4839 57.291L36.1646 53.4484L50.8453 49.6056L54.7841 35.2829L58.8122 20.9601L48.0703 10.4801L37.2388 0Z" fill="black"/>
<path d="M44.7586 123.577L44.311 125.237H38.761C38.3134 125.237 38.0448 125.411 37.9554 125.673L37.7763 126.372C37.7763 126.459 37.7763 126.459 37.7763 126.459C37.7763 126.634 37.9554 126.721 38.4028 126.721H41.3569C42.7891 126.721 43.5053 127.158 43.5053 128.119C43.5053 128.293 43.5053 128.468 43.4158 128.73L42.6996 131.437C42.2522 133.097 41.2674 133.883 39.7456 133.883H31.9578L32.4052 132.224H38.0448C38.4925 132.224 38.6714 132.049 38.761 131.787L38.9399 131.088C38.9399 131.001 38.9399 131.001 38.9399 130.913C38.9399 130.739 38.761 130.651 38.3134 130.651H34.9117C33.748 130.651 33.2109 130.215 33.2109 129.429C33.2109 129.167 33.2109 128.905 33.3005 128.468L33.9271 126.023C34.1062 125.324 34.3747 124.8 34.8222 124.363C35.2698 123.927 35.8964 123.665 36.6126 123.665H44.7586V123.577Z" fill="black"/>
<path d="M62.8399 126.11L62.3924 127.944C61.9448 129.516 60.9602 130.302 59.3489 130.302H54.9626L54.0673 133.97H50.0391L52.6351 123.665H60.8706C62.303 123.665 62.9295 124.189 62.9295 125.149C63.019 125.411 62.9295 125.673 62.8399 126.11ZM58.8118 126.197C58.8118 126.023 58.9013 125.848 58.9013 125.761C58.9013 125.499 58.7222 125.324 58.3642 125.324H56.2157L55.4101 128.555H57.5585C58.0061 128.555 58.2747 128.293 58.4536 127.769L58.8118 126.197Z" fill="black"/>
<path d="M80.4758 126.459L79.3121 131.088C78.8645 133.009 77.7008 133.97 76 133.97H69.8234C68.4806 133.97 67.7644 133.359 67.7644 132.223C67.7644 131.874 67.854 131.525 67.9435 131.175L69.1072 126.547C69.5548 124.625 70.7185 123.665 72.4194 123.665H78.5959C79.9387 123.665 80.5652 124.276 80.5652 125.411C80.6549 125.673 80.5652 126.023 80.4758 126.459ZM76.6266 125.935C76.6266 125.848 76.6266 125.761 76.6266 125.673C76.6266 125.411 76.4475 125.237 76 125.237H74.2991C73.762 125.237 73.4936 125.411 73.3145 125.848L71.8823 131.437C71.8823 131.525 71.8823 131.612 71.8823 131.699C71.8823 131.961 72.0612 132.136 72.5089 132.136H74.2096C74.7467 132.136 75.0153 131.961 75.1944 131.525L76.6266 125.935Z" fill="black"/>
<path d="M99.2732 125.935L98.7361 127.944C98.4676 128.992 97.841 129.516 96.7668 129.516L97.841 133.97H93.4546L92.6489 129.516H91.3958L90.2321 133.97H86.2039L88.7997 123.665H97.1248C98.557 123.665 99.2732 124.101 99.2732 125.062C99.4523 125.237 99.3627 125.586 99.2732 125.935ZM95.245 125.935C95.245 125.848 95.3344 125.761 95.3344 125.673C95.3344 125.499 95.1555 125.411 94.887 125.411H92.5595L91.9329 127.857H94.2602C94.6184 127.857 94.887 127.682 94.9764 127.245L95.245 125.935Z" fill="black"/>
<path d="M117.177 123.577L116.729 125.324H113.417L111.269 133.883H107.24L109.389 125.324H106.077L106.524 123.577H117.177Z" fill="black"/>
<path d="M147.075 123.577L144.479 133.883H139.287L137.138 125.411H137.049L134.9 133.883H133.2L135.796 123.577H140.988L143.136 131.962H143.225L145.374 123.577H147.075Z" fill="black"/>
<path d="M165.605 123.577L163.725 130.826C163.457 131.961 163.009 132.747 162.472 133.184C161.935 133.621 161.219 133.883 160.145 133.883H154.505C153.073 133.883 152.357 133.271 152.357 131.961C152.357 131.612 152.446 131.263 152.536 130.826L154.415 123.577H158.444L156.474 131.175C156.474 131.263 156.385 131.437 156.385 131.525C156.385 131.874 156.654 132.136 157.101 132.136H160.682C161.04 132.136 161.308 132.049 161.487 131.961C161.666 131.874 161.756 131.612 161.845 131.263L163.815 123.49H165.605V123.577Z" fill="black"/>
<path d="M181.897 123.577L181.451 125.324H178.138L175.99 133.883H171.962L174.11 125.324H170.798L171.245 123.577H181.897Z" fill="black"/>
<path d="M198.547 125.935L198.011 127.944C197.741 128.992 197.116 129.516 196.041 129.516L197.116 133.97H192.73L191.924 129.516H190.67L189.506 133.97H185.478L188.074 123.665H196.399C197.832 123.665 198.547 124.101 198.547 125.062C198.726 125.237 198.638 125.586 198.547 125.935ZM194.609 125.935C194.609 125.848 194.698 125.761 194.698 125.673C194.698 125.499 194.519 125.411 194.161 125.411H191.833L191.206 127.857H193.534C193.892 127.857 194.161 127.682 194.251 127.245L194.609 125.935Z" fill="black"/>
<path d="M211.08 123.577L208.395 133.883H204.455L207.052 123.577H211.08Z" fill="black"/>
<path d="M229.161 123.577L228.715 125.324H225.402L223.254 133.883H219.225L221.374 125.324H218.062L218.51 123.577H229.161Z" fill="black"/>
<path d="M240.173 123.577L237.487 133.883H233.459L236.144 123.577H240.173Z" fill="black"/>
<path d="M258.612 126.459L257.448 131.088C257.001 133.009 255.838 133.97 254.137 133.97H247.96C246.617 133.97 245.902 133.359 245.902 132.223C245.902 131.874 245.99 131.525 246.081 131.175L247.244 126.547C247.691 124.625 248.855 123.665 250.555 123.665H256.732C258.075 123.665 258.702 124.276 258.702 125.411C258.791 125.673 258.702 126.023 258.612 126.459ZM254.762 125.935C254.762 125.848 254.762 125.761 254.762 125.673C254.762 125.411 254.583 125.237 254.137 125.237H252.435C251.898 125.237 251.63 125.411 251.452 125.848L250.018 131.437C250.018 131.525 250.018 131.612 250.018 131.699C250.018 131.961 250.197 132.136 250.646 132.136H252.346C252.883 132.136 253.152 131.961 253.331 131.525L254.762 125.935Z" fill="black"/>
<path d="M278.039 123.577L275.354 133.883H270.25L268.013 125.411L265.864 133.883H264.073L266.759 123.577H271.951L274.1 131.962L276.248 123.577H278.039Z" fill="black"/>
</g>
</svg>
